{"title":"The.Boy.2016.TS.HQ.XviD-PARS","uid":13416072,"size":1323348652,"categoryP":"video","categoryS":"movies","magnet":"?xt=urn:btih:6e55e9cec1554555db653a3c6902995b353a2a4f&amp;dn=The.Boy.2016.TS.HQ.XviD-PARS&amp;tr=udp%3A%2F%2Ftracker.leechers-paradise.org%3A6969&amp;tr=udp%3A%2F%2Fzer0day.ch%3A1337&amp;tr=udp%3A%2F%2Fopen.demonii.com%3A1337&amp;tr=udp%3A%2F%2Ftracker.coppersurfer.tk%3A6969&amp;tr=udp%3A%2F%2Fexodus.desync.com%3A6969","seeders":52,"leechers":0,"uploader":"xxxlavalxxx","files":3,"time":1454497106,"description":"http://extraimago.com/image/vnq\r\n \nhttp://www.imdb.com/title/tt3882082/\r\n\r\n\r\nAn American nanny is shocked that her new English family's boy is actually a life-sized doll. After she violates a list of strict rules, disturbing events make her believe that the doll is really alive.\r\n\r\nDirector: William Brent Bell\r\nWriter: Stacey Menear\r\nStars: Lauren Cohan, Rupert Evans, James Russell\r\nGenres: Horror | Thriller\r\nCountry: USA | China | Canada\r\nLanguage: English\r\n\r\n\r\nFormat                      : Matroska\r\nFormat version              : Version 4 / Version 2\r\nFile size                   : 1.23 GiB\r\nDuration                    : 1h 28mn\r\nOverall bit rate            : 1 992 Kbps\r\nEncoded date                : UTC 2016-02-01 21:12:32\r\nWriting application         : mkvmerge v8.8.0 ('Wind at my back') 64bit\r\nWriting library             : libebml v1.3.3 + libmatroska v1.4.4\r\n\r\nVideo\r\nID                          : 1\r\nFormat                      : MPEG-4 Visual\r\nFormat profile              : Advanced   \r\nFormat settings, BVOP       : 1\r\nFormat settings, QPel       : No\r\nFormat settings, GMC        : No warppoints\r\nFormat settings, Matrix     : Default (H.263)\r\nMuxing mode                 : Packed bitstream\r\nCodec ID                    : V_MS/VFW/FOURCC / XVID\r\nCodec ID/Hint               : XviD\r\nDuration                    : 1h 28mn\r\nBit rate                    : 1 798 Kbps\r\nWidth                       : 720 pixels\r\nHeight                      : 320 pixels\r\nDisplay aspect ratio        : 2.25:1\r\nFrame rate mode             : Constant\r\nFrame rate                  : 23.976 (24000/1001) fps\r\nColor space                 : YUV\r\nChroma subsampling          : 4:2:0\r\nBit depth                   : 8 bits\r\nScan type                   : Progressive\r\nCompression mode            : Lossy\r\nBits/(Pixel*Frame)          : 0.326\r\nStream size                 : 1.11 GiB (90%)\r\nWriting library             : XviD 1.2.1 (UTC 2008-12-04)\r\nLanguage                    : English\r\nDefault                     : Yes\r\nForced                      : No\r\n\r\nAudio\r\nID                          : 2\r\nFormat                      : AC-3\r\nFormat/Info                 : Audio Coding 3\r\nMode extension              : CM (complete main)\r\nFormat settings, Endianness : Big\r\nCodec ID                    : A_AC3\r\nDuration                    : 1h 28mn\r\nBit rate mode               : Constant\r\nBit rate                    : 192 Kbps\r\nChannel(s)                  : 2 channels\r\nChannel positions           : Front: L R\r\nSampling rate               : 48.0 KHz\r\nFrame rate                  : 31.250 fps (1536 spf)\r\nCompression mode            : Lossy\r\nStream size                 : 122 MiB (10%)\r\nLanguage                    : English\r\nDefault                     : Yes\r\nForced                      : No\r\n\r\n \nhttp://extraimago.com/image/vnP \nhttp://extraimago.com/image/vnX \nhttp://extraimago.com/image/vng \nhttp://extraimago.com/image/vn5","torrent":{"xt":"urn:btih:6e55e9cec1554555db653a3c6902995b353a2a4f","amp;dn":"The.Boy.2016.TS.HQ.XviD-PARS","amp;tr":["udp%3A%2F%2Ftracker.leechers-paradise.org%3A6969","udp%3A%2F%2Fzer0day.ch%3A1337","udp%3A%2F%2Fopen.demonii.com%3A1337","udp%3A%2F%2Ftracker.coppersurfer.tk%3A6969","udp%3A%2F%2Fexodus.desync.com%3A6969"],"infoHash":"6e55e9cec1554555db653a3c6902995b353a2a4f","infoHashBuffer":{"type":"Buffer","data":[110,85,233,206,193,85,69,85,219,101,58,60,105,2,153,91,53,58,42,79]},"announce":[],"urlList":[]}}